<svg width="404" height="404" viewBox="0 0 404 404" fill="none" xmlns="http://www.w3.org/2000/svg">
<path d="M202 37.875C208.973 37.875 214.625 43.5274 214.625 50.5V67.3333C214.625 74.3059 208.973 79.9583 202 79.9583C195.027 79.9583 189.375 74.3059 189.375 67.3333V50.5C189.375 43.5274 195.027 37.875 202 37.875Z" fill="#FFD60A"/>
<path d="M303 202C303 257.781 257.781 303 202 303C146.219 303 101 257.781 101 202C101 146.219 146.219 101 202 101C257.781 101 303 146.219 303 202Z" fill="#FFD60A"/>
<path d="M214.625 336.667C214.625 329.694 208.973 324.042 202 324.042C195.027 324.042 189.375 329.694 189.375 336.667V353.5C189.375 360.473 195.027 366.125 202 366.125C208.973 366.125 214.625 360.473 214.625 353.5V336.667Z" fill="#FFD60A"/>
<path d="M347.6 120.611C351.087 126.65 349.018 134.371 342.979 137.858L328.401 146.274C322.363 149.761 314.641 147.692 311.155 141.653C307.669 135.615 309.738 127.893 315.776 124.407L330.354 115.99C336.393 112.504 344.114 114.573 347.6 120.611Z" fill="#FFD60A"/>
<path d="M61.0208 137.858C54.9824 134.371 52.9135 126.65 56.3998 120.611C59.8861 114.573 67.6074 112.504 73.6458 115.99L88.2239 124.407C94.2624 127.893 96.3313 135.615 92.845 141.653C89.3587 147.692 81.6374 149.761 75.5989 146.274L61.0208 137.858Z" fill="#FFD60A"/>
<path d="M56.3998 285.747C52.9135 279.709 54.9824 271.988 61.0208 268.501L75.5989 260.085C81.6374 256.598 89.3587 258.667 92.845 264.706C96.3313 270.744 94.2624 278.466 88.2239 281.952L73.6458 290.369C67.6074 293.855 59.8861 291.786 56.3998 285.747Z" fill="#FFD60A"/>
<path d="M342.979 268.501C349.018 271.988 351.087 279.709 347.6 285.747C344.114 291.786 336.393 293.855 330.354 290.369L315.776 281.952C309.738 278.466 307.669 270.744 311.155 264.706C314.641 258.667 322.363 256.598 328.401 260.085L342.979 268.501Z" fill="#FFD60A"/>
<path d="M257.283 175.077C255.444 174.448 253.589 173.866 251.721 173.331C252.035 172.054 252.324 170.793 252.58 169.553C256.791 149.202 254.038 132.807 244.636 127.409C235.621 122.233 220.878 127.63 205.988 140.532C204.521 141.805 203.086 143.116 201.685 144.462C200.747 143.567 199.793 142.689 198.822 141.829C183.217 128.034 167.576 122.22 158.184 127.634C149.177 132.825 146.51 148.238 150.301 167.525C150.678 169.435 151.104 171.336 151.578 173.224C149.364 173.851 147.227 174.517 145.183 175.227C126.887 181.578 115.203 191.531 115.203 201.855C115.203 212.518 127.746 223.213 146.802 229.697C148.347 230.221 149.905 230.706 151.474 231.153C150.964 233.187 150.512 235.235 150.117 237.294C146.503 256.247 149.325 271.295 158.308 276.454C167.585 281.781 183.157 276.306 198.318 263.109C199.548 262.037 200.75 260.933 201.924 259.801C203.441 261.258 204.999 262.673 206.595 264.044C221.282 276.627 235.787 281.708 244.761 276.536C254.029 271.193 257.042 255.027 253.131 235.358C252.823 233.818 252.477 232.284 252.095 230.76C253.188 230.437 254.262 230.105 255.308 229.76C275.118 223.225 288.008 212.66 288.008 201.855C288.008 191.494 275.947 181.474 257.283 175.077ZM252.987 222.784C252.041 223.095 251.072 223.395 250.084 223.688C247.897 216.794 244.946 209.464 241.334 201.891C244.78 194.498 247.618 187.261 249.744 180.413C251.512 180.922 253.227 181.459 254.881 182.026C270.872 187.507 280.626 195.611 280.626 201.855C280.626 208.506 270.091 217.14 252.987 222.784ZM245.889 236.786C247.619 245.483 247.865 253.346 246.72 259.494C245.691 265.017 243.621 268.7 241.062 270.175C235.616 273.314 223.97 269.234 211.41 258.473C209.925 257.198 208.476 255.882 207.065 254.528C211.935 249.225 216.801 243.062 221.55 236.216C229.904 235.478 237.797 234.271 244.954 232.624C245.299 234.004 245.611 235.391 245.889 236.786ZM174.116 269.633C168.796 271.503 164.558 271.557 161.996 270.086C156.545 266.956 154.279 254.873 157.37 238.665C157.738 236.75 158.158 234.845 158.632 232.953C165.71 234.512 173.545 235.633 181.919 236.309C186.7 243.008 191.707 249.165 196.753 254.556C195.68 255.59 194.583 256.596 193.461 257.575C186.756 263.41 180.037 267.551 174.116 269.633ZM149.19 222.743C140.764 219.875 133.805 216.148 129.036 212.082C124.749 208.427 122.586 204.799 122.586 201.855C122.586 195.59 131.967 187.599 147.613 182.168C149.512 181.509 151.499 180.887 153.561 180.304C155.724 187.307 158.56 194.63 161.983 202.034C158.516 209.548 155.639 216.987 153.455 224.073C152.023 223.664 150.601 223.221 149.19 222.743ZM157.546 166.113C154.298 149.589 156.455 137.123 161.883 133.995C167.664 130.663 180.447 135.414 193.921 147.326C194.8 148.104 195.664 148.899 196.514 149.708C191.493 155.076 186.532 161.187 181.793 167.846C173.666 168.596 165.886 169.801 158.734 171.414C158.293 169.658 157.897 167.89 157.546 166.113ZM232.086 184.439C230.397 181.534 228.644 178.665 226.831 175.835C232.344 176.529 237.627 177.45 242.588 178.577C241.099 183.33 239.242 188.299 237.057 193.393C235.46 190.376 233.803 187.391 232.086 184.439ZM201.689 154.961C205.093 158.634 208.503 162.735 211.858 167.184C205.053 166.864 198.238 166.862 191.434 167.18C194.791 162.771 198.23 158.676 201.689 154.961ZM171.096 184.49C169.401 187.417 167.774 190.384 166.218 193.387C164.068 188.311 162.229 183.319 160.727 178.499C165.657 177.401 170.915 176.503 176.394 175.821C174.56 178.669 172.793 181.56 171.096 184.49ZM176.551 228.412C170.891 227.783 165.554 226.931 160.625 225.863C162.151 220.956 164.031 215.859 166.226 210.674C167.789 213.679 169.422 216.647 171.125 219.576C172.876 222.587 174.689 225.536 176.551 228.412ZM201.892 249.267C198.393 245.508 194.903 241.35 191.495 236.878C194.804 237.007 198.177 237.073 201.605 237.073C205.128 237.073 208.609 236.994 212.037 236.842C208.672 241.395 205.274 245.559 201.892 249.267ZM237.127 210.409C239.437 215.651 241.384 220.722 242.929 225.544C237.919 226.682 232.51 227.599 226.81 228.28C228.636 225.397 230.405 222.478 232.115 219.526C233.853 216.524 235.524 213.484 237.127 210.409ZM225.721 215.853C223.103 220.381 220.338 224.822 217.431 229.171C212.164 229.542 206.885 229.726 201.605 229.724C196.228 229.724 190.997 229.557 185.96 229.232C182.976 224.893 180.159 220.444 177.513 215.894C174.88 211.367 172.421 206.743 170.141 202.031C172.416 197.317 174.868 192.691 177.492 188.161C180.115 183.63 182.909 179.2 185.87 174.88C191.009 174.493 196.279 174.292 201.605 174.292C206.955 174.292 212.232 174.495 217.37 174.885C220.301 179.198 223.078 183.613 225.696 188.122C228.329 192.642 230.814 197.246 233.146 201.926C230.837 206.655 228.361 211.3 225.721 215.853ZM240.949 133.776C246.735 137.099 248.986 150.498 245.35 168.07C245.118 169.191 244.857 170.332 244.574 171.49C237.404 169.842 229.619 168.617 221.468 167.856C216.72 161.124 211.8 155.003 206.86 149.704C208.155 148.462 209.48 147.252 210.835 146.075C223.593 135.021 235.516 130.657 240.949 133.776ZM201.605 186.491C210.128 186.491 217.036 193.37 217.036 201.855C217.036 210.34 210.128 217.219 201.605 217.219C193.083 217.219 186.175 210.34 186.175 201.855C186.175 193.37 193.083 186.491 201.605 186.491Z" fill="#000814"/>
</svg>
